<svg width="219" height="72" viewBox="0 0 219 72" fill="none" xmlns="http://www.w3.org/2000/svg">
<mask id="path-1-inside-1_216_39" fill="white">
<path d="M192.083 30.25H187.333L203.167 16L219 30.25H214.25L203.167 20.2592L192.083 30.25ZM211.083 18.8658V16H215.833V23.125L211.083 18.8658Z"/>
</mask>
<path d="M192.083 30.25H187.333L203.167 16L219 30.25H214.25L203.167 20.2592L192.083 30.25ZM211.083 18.8658V16H215.833V23.125L211.083 18.8658Z" fill="white"/>
<path d="M192.083 30.25V35.25H194.004L195.431 33.9638L192.083 30.25ZM187.333 30.25L183.989 26.5335L174.304 35.25H187.333V30.25ZM203.167 16L206.512 12.2835L203.167 9.27319L199.822 12.2835L203.167 16ZM219 30.25V35.25H232.03L222.345 26.5335L219 30.25ZM214.25 30.25L210.902 33.9638L212.329 35.25H214.25V30.25ZM203.167 20.2592L206.515 16.5453L203.167 13.5276L199.819 16.5453L203.167 20.2592ZM211.083 18.8658H206.083V21.0982L207.746 22.5885L211.083 18.8658ZM211.083 16V11H206.083V16H211.083ZM215.833 16H220.833V11H215.833V16ZM215.833 23.125L212.496 26.8476L220.833 34.324V23.125H215.833ZM192.083 25.25H187.333V35.25H192.083V25.25ZM190.678 33.9665L206.512 19.7165L199.822 12.2835L183.989 26.5335L190.678 33.9665ZM199.822 19.7165L215.655 33.9665L222.345 26.5335L206.512 12.2835L199.822 19.7165ZM219 25.25H214.25V35.25H219V25.25ZM217.598 26.5362L206.515 16.5453L199.819 23.973L210.902 33.9638L217.598 26.5362ZM199.819 16.5453L188.736 26.5362L195.431 33.9638L206.515 23.973L199.819 16.5453ZM216.083 18.8658V16H206.083V18.8658H216.083ZM211.083 21H215.833V11H211.083V21ZM210.833 16V23.125H220.833V16H210.833ZM219.171 19.4024L214.421 15.1432L207.746 22.5885L212.496 26.8476L219.171 19.4024Z" fill="white" mask="url(#path-1-inside-1_216_39)"/>
<path d="M44.7812 42.6016C44.7812 41.7161 44.8984 40.7526 45.1328 39.7109C45.3932 38.6693 45.7448 37.6276 46.1875 36.5859C46.6302 35.5182 47.1641 34.4896 47.7891 33.5C48.4141 32.4844 49.1172 31.599 49.8984 30.8438C50.6797 30.0625 51.526 29.4505 52.4375 29.0078C53.349 28.5391 54.3125 28.3047 55.3281 28.3047C56.1615 28.3047 56.9427 28.4219 57.6719 28.6562C58.401 28.8646 59.026 29.1901 59.5469 29.6328C60.0677 30.0755 60.4714 30.6354 60.7578 31.3125C61.0703 31.9635 61.2266 32.7448 61.2266 33.6562C60.6536 33.6562 60.1849 33.513 59.8203 33.2266C59.4818 32.9141 59.1562 32.5755 58.8438 32.2109C58.5573 31.8464 58.2318 31.5208 57.8672 31.2344C57.5286 30.9479 57.0859 30.8047 56.5391 30.8047C55.7318 30.8047 54.9505 31.013 54.1953 31.4297C53.4661 31.8464 52.776 32.4062 52.125 33.1094C51.5 33.8125 50.9401 34.6068 50.4453 35.4922C49.9766 36.3776 49.5599 37.276 49.1953 38.1875C48.8568 39.0729 48.5833 39.9453 48.375 40.8047C48.1927 41.6641 48.1016 42.4062 48.1016 43.0312C48.1016 44.3854 48.2969 45.6615 48.6875 46.8594C49.1042 48.0312 49.6901 49.0599 50.4453 49.9453C51.2005 50.8047 52.138 51.4818 53.2578 51.9766C54.3776 52.4714 55.6536 52.7188 57.0859 52.7188C57.9974 52.7188 58.8568 52.5885 59.6641 52.3281C60.4974 52.0417 61.2917 51.7422 62.0469 51.4297C62.8281 51.0911 63.5964 50.7786 64.3516 50.4922C65.1068 50.2057 65.862 50.0625 66.6172 50.0625C66.7214 50.0625 66.8646 50.0755 67.0469 50.1016C67.2552 50.1016 67.4375 50.1276 67.5938 50.1797C67.776 50.2318 67.9323 50.3229 68.0625 50.4531C68.1927 50.5573 68.2578 50.7266 68.2578 50.9609C68.2578 51.8984 67.8932 52.6927 67.1641 53.3438C66.4609 53.9948 65.6146 54.5286 64.625 54.9453C63.6354 55.3359 62.6068 55.6224 61.5391 55.8047C60.4714 55.987 59.599 56.0781 58.9219 56.0781C56.9427 56.0781 55.0938 55.7656 53.375 55.1406C51.6562 54.4896 50.1589 53.5781 48.8828 52.4062C47.6068 51.2344 46.6042 49.8281 45.875 48.1875C45.1458 46.5208 44.7812 44.6589 44.7812 42.6016ZM70.8359 33.8906C70.8359 33.1354 70.7839 32.4062 70.6797 31.7031C70.5755 30.974 70.5495 30.3359 70.6016 29.7891C70.6536 29.2161 70.849 28.7604 71.1875 28.4219C71.5521 28.0833 72.2031 27.9141 73.1406 27.9141C73.4271 28.513 73.7005 29.4245 73.9609 30.6484C74.2474 31.8724 74.5208 33.2786 74.7812 34.8672C75.0417 36.4557 75.2891 38.1875 75.5234 40.0625C75.7578 41.9115 75.9661 43.7734 76.1484 45.6484C76.3568 47.5234 76.526 49.3724 76.6562 51.1953C76.8125 52.9922 76.9297 54.6328 77.0078 56.1172C76.1484 56.6901 75.4583 56.7292 74.9375 56.2344C74.4167 55.7396 73.987 54.9062 73.6484 53.7344C73.3099 52.5365 73.0495 51.0911 72.8672 49.3984C72.6849 47.6797 72.5026 45.9089 72.3203 44.0859C72.1641 42.237 71.9688 40.4271 71.7344 38.6562C71.5 36.8594 71.2005 35.2708 70.8359 33.8906ZM95.8359 50.9609C94.8464 51.638 93.987 52.25 93.2578 52.7969C92.5547 53.3177 91.8646 53.7604 91.1875 54.125C90.5104 54.4896 89.7812 54.763 89 54.9453C88.2448 55.1276 87.3073 55.2188 86.1875 55.2188C83.7656 55.2188 81.9688 54.5807 80.7969 53.3047C79.625 52.0026 79.0391 50.0755 79.0391 47.5234C79.0391 46.5339 79.1693 45.5052 79.4297 44.4375C79.6901 43.3698 80.0677 42.3151 80.5625 41.2734C81.0833 40.2057 81.6953 39.2031 82.3984 38.2656C83.1016 37.3021 83.8958 36.4557 84.7812 35.7266C85.6667 34.9974 86.6042 34.4245 87.5938 34.0078C88.6094 33.5651 89.6771 33.3438 90.7969 33.3438C92.6719 33.526 94.1432 33.9948 95.2109 34.75C96.2786 35.4792 97.0859 36.4297 97.6328 37.6016C98.1797 38.7474 98.5573 40.0365 98.7656 41.4688C98.974 42.875 99.1302 44.3333 99.2344 45.8438C99.3646 47.3542 99.5208 48.8646 99.7031 50.375C99.8854 51.8854 100.263 53.2786 100.836 54.5547C100.497 55.4141 100.172 56.013 99.8594 56.3516C99.5729 56.7161 99.2474 56.7812 98.8828 56.5469C98.5182 56.3125 98.0885 55.7396 97.5938 54.8281C97.125 53.9167 96.5391 52.6276 95.8359 50.9609ZM82.3594 47.6016C82.3594 49.0859 82.6328 50.1797 83.1797 50.8828C83.7526 51.5599 84.7552 51.8984 86.1875 51.8984C87.2552 51.8984 88.2708 51.7161 89.2344 51.3516C90.224 50.9609 91.0833 50.4401 91.8125 49.7891C92.5417 49.112 93.1276 48.3047 93.5703 47.3672C94.013 46.4297 94.2344 45.388 94.2344 44.2422C94.2344 43.7734 94.2474 43.1224 94.2734 42.2891C94.2995 41.4297 94.2474 40.5833 94.1172 39.75C93.987 38.9167 93.7396 38.2005 93.375 37.6016C93.0104 36.9766 92.4635 36.6641 91.7344 36.6641C90.3802 36.6641 89.1302 37.0156 87.9844 37.7188C86.8385 38.3958 85.849 39.2682 85.0156 40.3359C84.1823 41.4036 83.5312 42.5885 83.0625 43.8906C82.5938 45.1667 82.3594 46.4036 82.3594 47.6016ZM102.633 35.8047C102.633 35.5703 102.633 35.3359 102.633 35.1016C102.659 34.8411 102.711 34.6068 102.789 34.3984C102.893 34.1641 103.023 33.9948 103.18 33.8906C103.362 33.7604 103.622 33.6953 103.961 33.6953C103.987 33.6953 104.013 33.6953 104.039 33.6953C104.091 33.6953 104.143 33.6953 104.195 33.6953C104.273 33.7214 104.339 33.7344 104.391 33.7344C104.885 34.4115 105.315 35.2839 105.68 36.3516C106.044 37.3932 106.396 38.513 106.734 39.7109C107.073 40.8828 107.438 42.0807 107.828 43.3047C108.219 44.5026 108.727 45.5833 109.352 46.5469C109.977 47.5104 110.745 48.2786 111.656 48.8516C112.568 49.4245 113.701 49.6719 115.055 49.5938C115.654 49.5938 116.044 49.2682 116.227 48.6172C116.409 47.9661 116.5 47.1328 116.5 46.1172C116.526 45.1016 116.5 43.9818 116.422 42.7578C116.37 41.5339 116.37 40.375 116.422 39.2812C116.5 38.1615 116.695 37.1849 117.008 36.3516C117.346 35.5182 117.919 34.9583 118.727 34.6719C119.065 35.349 119.339 36.4167 119.547 37.875C119.781 39.3073 119.951 40.974 120.055 42.875C120.159 44.75 120.211 46.7943 120.211 49.0078C120.211 51.1953 120.159 53.3828 120.055 55.5703C119.951 57.7318 119.794 59.8151 119.586 61.8203C119.378 63.8255 119.143 65.5833 118.883 67.0938C118.622 68.6042 118.31 69.7891 117.945 70.6484C117.607 71.5339 117.242 71.9115 116.852 71.7812C116.305 71.2604 115.875 70.5833 115.562 69.75C115.276 68.9167 115.068 67.9922 114.938 66.9766C114.833 65.9609 114.794 64.8802 114.82 63.7344C114.846 62.6146 114.885 61.4818 114.938 60.3359C115.016 59.1901 115.094 58.0703 115.172 56.9766C115.276 55.8828 115.328 54.8802 115.328 53.9688C114.391 54.0469 113.427 53.9036 112.438 53.5391C111.474 53.1745 110.523 52.6146 109.586 51.8594C108.648 51.0781 107.75 50.1406 106.891 49.0469C106.057 47.9531 105.315 46.7161 104.664 45.3359C104.039 43.9557 103.544 42.4714 103.18 40.8828C102.815 39.2682 102.633 37.5755 102.633 35.8047ZM121.695 36.3125C121.695 36.2344 121.708 36.1693 121.734 36.1172C121.734 36.0651 121.747 36 121.773 35.9219C121.878 35.7917 122.034 35.6224 122.242 35.4141C122.451 35.2057 122.581 35.1016 122.633 35.1016H130.484C130.484 34.8151 130.445 34.3594 130.367 33.7344C130.289 33.1094 130.211 32.4193 130.133 31.6641C130.081 30.9089 130.068 30.1276 130.094 29.3203C130.12 28.487 130.224 27.7448 130.406 27.0938C130.615 26.4167 130.927 25.8698 131.344 25.4531C131.786 25.0104 132.398 24.7891 133.18 24.7891C133.18 27.4193 133.362 29.5286 133.727 31.1172C134.091 32.7057 134.573 33.9297 135.172 34.7891C135.797 35.6484 136.5 36.2083 137.281 36.4688C138.062 36.7292 138.857 36.8464 139.664 36.8203C140.497 36.7682 141.305 36.638 142.086 36.4297C142.867 36.2214 143.557 36.0781 144.156 36C144.781 35.9219 145.276 35.987 145.641 36.1953C146.005 36.3776 146.188 36.8333 146.188 37.5625C146.188 38.1094 146.057 38.5 145.797 38.7344C145.562 38.9688 145.094 39.151 144.391 39.2812C144.182 39.3073 143.831 39.3594 143.336 39.4375C142.867 39.4896 142.333 39.5417 141.734 39.5938C141.135 39.6458 140.497 39.7109 139.82 39.7891C139.143 39.8411 138.505 39.8932 137.906 39.9453C137.307 39.9974 136.76 40.0365 136.266 40.0625C135.771 40.0625 135.406 40.0625 135.172 40.0625C135.172 40.1927 135.159 40.4141 135.133 40.7266C135.107 41.0391 135.094 41.2474 135.094 41.3516C135.094 42.4974 135.276 43.6172 135.641 44.7109C136.005 45.7786 136.396 46.8464 136.812 47.9141C137.255 48.9818 137.659 50.0495 138.023 51.1172C138.388 52.1849 138.57 53.2917 138.57 54.4375C138.57 54.6458 138.544 54.8672 138.492 55.1016C138.466 55.3099 138.388 55.5052 138.258 55.6875C138.154 55.8438 137.984 55.9609 137.75 56.0391C137.542 56.1432 137.242 56.1302 136.852 56C135.862 55.7396 135.12 55.1797 134.625 54.3203C134.156 53.4609 133.805 52.4453 133.57 51.2734C133.336 50.0755 133.18 48.8125 133.102 47.4844C133.023 46.1562 132.893 44.9193 132.711 43.7734C132.555 42.6016 132.294 41.612 131.93 40.8047C131.565 39.9714 130.979 39.4635 130.172 39.2812L122.633 37.5625C122.529 37.5625 122.372 37.4583 122.164 37.25C121.956 37.0156 121.826 36.8464 121.773 36.7422C121.747 36.6901 121.734 36.625 121.734 36.5469C121.708 36.4948 121.695 36.4167 121.695 36.3125ZM147.672 48.0703C147.672 46.4557 148.049 44.9583 148.805 43.5781C149.56 42.1719 150.549 40.974 151.773 39.9844C153.023 38.9688 154.417 38.1745 155.953 37.6016C157.516 37.0286 159.091 36.7422 160.68 36.7422C161.565 36.7422 162.346 37.0286 163.023 37.6016C163.727 38.1745 164.312 38.8776 164.781 39.7109C165.25 40.5182 165.602 41.3776 165.836 42.2891C166.096 43.2005 166.227 43.9948 166.227 44.6719C166.227 46.1302 165.875 47.5495 165.172 48.9297C164.469 50.2839 163.557 51.4948 162.438 52.5625C161.318 53.6042 160.055 54.4505 158.648 55.1016C157.242 55.7526 155.836 56.0781 154.43 56.0781C153.18 56.0781 152.125 55.8698 151.266 55.4531C150.406 55.0104 149.716 54.4375 149.195 53.7344C148.674 53.0052 148.284 52.1589 148.023 51.1953C147.789 50.2057 147.672 49.1641 147.672 48.0703ZM150.992 48.4609C150.992 49.138 151.044 49.737 151.148 50.2578C151.279 50.7526 151.487 51.1823 151.773 51.5469C152.086 51.9115 152.49 52.1979 152.984 52.4062C153.479 52.5885 154.091 52.6797 154.82 52.6797C155.784 52.6797 156.747 52.4193 157.711 51.8984C158.674 51.3516 159.534 50.6745 160.289 49.8672C161.07 49.0339 161.695 48.1224 162.164 47.1328C162.633 46.1432 162.867 45.1797 162.867 44.2422C162.867 43.8255 162.828 43.3698 162.75 42.875C162.672 42.3802 162.542 41.9245 162.359 41.5078C162.177 41.0911 161.917 40.7396 161.578 40.4531C161.24 40.1667 160.81 40.0234 160.289 40.0234C159.82 40.0234 159.26 40.1797 158.609 40.4922C157.984 40.8047 157.32 41.2083 156.617 41.7031C155.94 42.1979 155.263 42.7578 154.586 43.3828C153.935 44.0078 153.336 44.6328 152.789 45.2578C152.242 45.8828 151.799 46.4818 151.461 47.0547C151.148 47.6276 150.992 48.0964 150.992 48.4609ZM166.891 39.2812C166.891 38.8385 166.982 38.4349 167.164 38.0703C167.372 37.7057 167.724 37.5234 168.219 37.5234C168.245 37.5234 168.284 37.5365 168.336 37.5625C168.388 37.5625 168.44 37.5625 168.492 37.5625C168.544 37.5625 168.596 37.5625 168.648 37.5625C168.727 37.6146 168.87 37.7448 169.078 37.9531C169.312 38.1615 169.456 38.3177 169.508 38.4219C169.586 38.5781 169.742 38.9167 169.977 39.4375C170.237 39.9583 170.536 40.5703 170.875 41.2734C171.24 41.9505 171.604 42.6797 171.969 43.4609C172.359 44.2161 172.724 44.9453 173.062 45.6484C173.427 46.3516 173.727 46.9635 173.961 47.4844C174.221 47.9792 174.404 48.3047 174.508 48.4609C174.534 48.5391 174.651 48.6953 174.859 48.9297C175.094 49.138 175.263 49.2682 175.367 49.3203C175.576 48.9557 175.784 48.4089 175.992 47.6797C176.201 46.9505 176.409 46.1562 176.617 45.2969C176.852 44.4115 177.086 43.513 177.32 42.6016C177.555 41.6641 177.815 40.8307 178.102 40.1016C178.414 39.3464 178.753 38.7344 179.117 38.2656C179.482 37.7708 179.898 37.5234 180.367 37.5234C181.044 37.5234 181.682 37.7839 182.281 38.3047C182.906 38.8255 183.492 39.5026 184.039 40.3359C184.612 41.1693 185.146 42.1068 185.641 43.1484C186.161 44.1641 186.643 45.1797 187.086 46.1953C187.555 47.1849 187.984 48.1094 188.375 48.9688C188.792 49.8021 189.195 50.4661 189.586 50.9609C189.898 50.8568 190.159 50.5964 190.367 50.1797C190.576 49.763 190.732 49.3333 190.836 48.8906C190.966 48.4219 191.057 47.9922 191.109 47.6016C191.161 47.1849 191.201 46.9115 191.227 46.7812C191.253 46.4948 191.292 46.0521 191.344 45.4531C191.396 44.8281 191.448 44.125 191.5 43.3438C191.578 42.5625 191.643 41.7552 191.695 40.9219C191.747 40.0885 191.799 39.2812 191.852 38.5C191.93 37.7188 191.982 37.0286 192.008 36.4297C192.06 35.8047 192.086 35.362 192.086 35.1016C192.138 35.1016 192.268 35.0885 192.477 35.0625C192.685 35.0104 192.828 34.9844 192.906 34.9844C193.271 34.9844 193.596 35.0234 193.883 35.1016C194.169 35.1797 194.391 35.4531 194.547 35.9219C194.547 36.1042 194.547 36.4297 194.547 36.8984C194.573 37.3672 194.586 37.875 194.586 38.4219C194.612 38.9427 194.625 39.4505 194.625 39.9453C194.651 40.4141 194.664 40.7396 194.664 40.9219C194.664 41.3385 194.664 41.9896 194.664 42.875C194.69 43.7344 194.677 44.6979 194.625 45.7656C194.599 46.8333 194.521 47.9271 194.391 49.0469C194.26 50.1406 194.052 51.1562 193.766 52.0938C193.505 53.0052 193.141 53.7604 192.672 54.3594C192.203 54.9323 191.617 55.2188 190.914 55.2188C190.107 55.2188 189.352 55.0234 188.648 54.6328C187.945 54.2422 187.281 53.7214 186.656 53.0703C186.057 52.4193 185.484 51.7031 184.938 50.9219C184.391 50.1146 183.883 49.3073 183.414 48.5C182.971 47.6667 182.555 46.8854 182.164 46.1562C181.799 45.401 181.474 44.763 181.188 44.2422C180.979 44.7109 180.784 45.2969 180.602 46C180.445 46.7031 180.263 47.4714 180.055 48.3047C179.846 49.112 179.612 49.9323 179.352 50.7656C179.091 51.5729 178.792 52.3151 178.453 52.9922C178.141 53.6432 177.763 54.1771 177.32 54.5938C176.904 55.0104 176.422 55.2188 175.875 55.2188C175.615 55.2188 175.38 55.2318 175.172 55.2578C174.964 55.2578 174.768 55.2448 174.586 55.2188C174.404 55.1667 174.234 55.0755 174.078 54.9453C173.922 54.8151 173.779 54.6068 173.648 54.3203L166.969 40.0625C166.969 40.0365 166.956 39.9323 166.93 39.75C166.904 39.5417 166.891 39.3854 166.891 39.2812ZM197.086 42.8359C197.086 42.1589 197.255 41.6771 197.594 41.3906C197.932 41.0781 198.479 40.9219 199.234 40.9219H199.625C199.703 41.3385 199.794 41.8203 199.898 42.3672C200.003 42.9141 200.159 43.474 200.367 44.0469C200.576 44.6198 200.823 45.1536 201.109 45.6484C201.396 46.1172 201.747 46.4948 202.164 46.7812C202.19 45.8698 202.411 44.9974 202.828 44.1641C203.271 43.3047 203.805 42.5495 204.43 41.8984C205.081 41.2214 205.784 40.6615 206.539 40.2188C207.32 39.75 208.089 39.4375 208.844 39.2812H209.703C210.953 39.2812 212.021 39.5677 212.906 40.1406C213.792 40.6875 214.521 41.4167 215.094 42.3281C215.693 43.2135 216.148 44.2292 216.461 45.375C216.773 46.5208 217.008 47.6927 217.164 48.8906C217.346 50.0625 217.451 51.2083 217.477 52.3281C217.529 53.4219 217.555 54.3594 217.555 55.1406H214.703C214.547 53.5781 214.352 52.0807 214.117 50.6484C214.039 50.0755 213.935 49.4766 213.805 48.8516C213.674 48.2005 213.531 47.6016 213.375 47.0547C213.219 46.4818 213.049 45.9609 212.867 45.4922C212.685 44.9974 212.477 44.5807 212.242 44.2422C212.138 44.138 211.995 43.9948 211.812 43.8125C211.656 43.6302 211.487 43.4479 211.305 43.2656C211.122 43.0833 210.953 42.9271 210.797 42.7969C210.641 42.6667 210.549 42.6016 210.523 42.6016C209.742 42.3932 209.065 42.5495 208.492 43.0703C207.919 43.5651 207.411 44.2422 206.969 45.1016C206.526 45.9609 206.161 46.9375 205.875 48.0312C205.615 49.125 205.393 50.1797 205.211 51.1953C205.029 52.1849 204.898 53.0573 204.82 53.8125C204.742 54.5417 204.69 54.9844 204.664 55.1406C204.013 55.6094 203.401 55.7526 202.828 55.5703C202.255 55.362 201.708 54.9453 201.188 54.3203C200.693 53.6953 200.237 52.9141 199.82 51.9766C199.43 51.0391 199.065 50.0495 198.727 49.0078C198.388 47.9401 198.076 46.8724 197.789 45.8047C197.529 44.737 197.294 43.7474 197.086 42.8359Z" fill="white"/>
</svg>
