<svg width="26" height="19" viewBox="0 0 26 19" fill="none" xmlns="http://www.w3.org/2000/svg">
<path d="M3 0.75C1.75736 0.75 0.75 1.75736 0.75 3V16C0.75 17.2426 1.75736 18.25 3 18.25H23C24.2426 18.25 25.25 17.2426 25.25 16V3C25.25 1.75736 24.2426 0.75 23 0.75H3Z" fill="white" stroke="#CAD2DB" stroke-width="0.5"/>
<path fill-rule="evenodd" clip-rule="evenodd" d="M14.9301 7.32153C14.6973 7.23515 14.3326 7.14258 13.877 7.14258C12.716 7.14258 11.898 7.72057 11.8911 8.54893C11.8846 9.16129 12.475 9.50294 12.9207 9.70679C13.378 9.91561 13.5318 10.0488 13.5296 10.2354C13.5268 10.521 13.1644 10.6516 12.8266 10.6516C12.3564 10.6516 12.1066 10.587 11.7207 10.4279L11.5692 10.3601L11.4043 11.3141C11.6788 11.4331 12.1862 11.5362 12.7132 11.5415C13.9483 11.5415 14.7502 10.9701 14.7593 10.0855C14.7637 9.60074 14.4506 9.23174 13.7728 8.92765C13.3621 8.73049 13.1106 8.5989 13.1132 8.39929C13.1132 8.22214 13.3261 8.03274 13.7861 8.03274C14.1704 8.02687 14.4487 8.10965 14.6655 8.19602L14.7708 8.24516L14.9301 7.32153Z" fill="#00579F"/>
<path fill-rule="evenodd" clip-rule="evenodd" d="M16.4932 9.96753C16.5904 9.72197 16.9614 8.77621 16.9614 8.77621C16.9544 8.78756 17.0578 8.5295 17.1172 8.3695L17.1966 8.73694C17.1966 8.73694 17.4216 9.75422 17.4686 9.96753H16.4932ZM17.9422 7.2207H17.0342C16.7529 7.2207 16.5424 7.29654 16.4189 7.57411L14.6738 11.4797H15.9076C15.9076 11.4797 16.1095 10.9545 16.1551 10.8393C16.2899 10.8393 17.4885 10.841 17.6599 10.841C17.6951 10.9902 17.8028 11.4797 17.8028 11.4797H18.8931L17.9422 7.2207Z" fill="#00579F"/>
<path fill-rule="evenodd" clip-rule="evenodd" d="M8.50777 7.21973L7.35736 10.1259L7.23481 9.53527C7.02068 8.85442 6.35344 8.11683 5.60742 7.74759L6.65932 11.4746L7.90255 11.4732L9.75241 7.21973H8.50777Z" fill="#00579F"/>
<path fill-rule="evenodd" clip-rule="evenodd" d="M6.29059 7.2168H4.39589L4.38086 7.30545C5.85498 7.65821 6.83033 8.51074 7.23521 9.53495L6.82323 7.57657C6.75204 7.30676 6.54576 7.22619 6.29059 7.2168Z" fill="#F9A51A"/>
<path fill-rule="evenodd" clip-rule="evenodd" d="M10.2288 7.21582L9.49414 11.4776H10.6687L11.4038 7.21582H10.2288Z" fill="#00579F"/>
<path fill-rule="evenodd" clip-rule="evenodd" d="M1 3C1 1.89543 1.89543 1 3 1H23C24.1046 1 25 1.89543 25 3V6H1V3Z" fill="#00579F"/>
<path fill-rule="evenodd" clip-rule="evenodd" d="M25 16C25 17.1046 24.1046 18 23 18L3 18C1.89543 18 1 17.1046 1 16V13L25 13V16Z" fill="#F9A51A"/>
</svg>
