<svg width="144" height="46" viewBox="0 0 144 46" fill="none" xmlns="http://www.w3.org/2000/svg">
<rect width="144" height="46" rx="23" fill="#FEF8E6"/>
<rect x="8.5" y="8" width="30" height="30" rx="15" fill="#FBC47C"/>
<path d="M18.5 24H29.5" stroke="#1C1C1C" stroke-width="1.5" stroke-linecap="round" stroke-linejoin="round"/>
<path d="M77.2363 23.1621C77.2363 20.2617 76.7334 17.9473 75.7275 16.2188C74.7314 14.4902 73.4033 13.626 71.7432 13.626C70.1318 13.626 68.8184 14.5195 67.8027 16.3066C66.7871 18.0938 66.2793 20.3984 66.2793 23.2207C66.2793 26.0234 66.7871 28.3135 67.8027 30.0908C68.8184 31.8682 70.1318 32.7568 71.7432 32.7568C73.4229 32.7568 74.7559 31.8926 75.7422 30.1641C76.7383 28.4355 77.2363 26.1016 77.2363 23.1621ZM79.624 23.1914C79.624 26.7852 78.9062 29.6465 77.4707 31.7754C76.0449 33.8945 74.1357 34.9541 71.7432 34.9541C69.3896 34.9541 67.4854 33.8799 66.0303 31.7314C64.5752 29.583 63.8477 26.7363 63.8477 23.1914C63.8477 19.6367 64.5703 16.79 66.0156 14.6514C67.4609 12.5029 69.3701 11.4287 71.7432 11.4287C74.1162 11.4287 76.0205 12.498 77.4561 14.6367C78.9014 16.7656 79.624 19.6172 79.624 23.1914Z" fill="#1C1C1C"/>
<rect x="105.5" y="8" width="30" height="30" rx="15" fill="#FBC47C"/>
<path d="M114.5 23.5H125.5M120 18V29" stroke="#1C1C1C" stroke-width="1.5" stroke-linecap="round" stroke-linejoin="round"/>
</svg>
