<svg width="51" height="24" viewBox="0 0 51 24" fill="none" xmlns="http://www.w3.org/2000/svg">
<rect x="0.5" y="0.5" width="50" height="23" rx="3.5" stroke="#FBC47C" stroke-opacity="0.7"/>
<path d="M15.6348 20H14.6211V15.6055H9.94531V20H8.9375V10.9531H9.94531V14.6621H14.6211V10.9531H15.6348V20ZM25.4727 15.4766C25.4727 14.418 25.1152 13.5273 24.4004 12.8047C23.6855 12.082 22.7988 11.7207 21.7402 11.7207C20.6191 11.7207 19.7168 12.0879 19.0332 12.8223C18.3496 13.5566 18.0078 14.4414 18.0078 15.4766C18.0078 16.5352 18.3633 17.4258 19.0742 18.1484C19.7852 18.8711 20.6738 19.2324 21.7402 19.2324C22.7949 19.2324 23.6797 18.8711 24.3945 18.1484C25.1133 17.4219 25.4727 16.5312 25.4727 15.4766ZM26.4805 15.4766C26.4805 16.8008 26.0234 17.916 25.1094 18.8223C24.1953 19.7285 23.0723 20.1816 21.7402 20.1816C20.4043 20.1816 19.2793 19.7285 18.3652 18.8223C17.4551 17.9121 17 16.7969 17 15.4766C17 14.1367 17.4512 13.0176 18.3535 12.1191C19.2598 11.2207 20.3887 10.7715 21.7402 10.7715C23.0879 10.7715 24.2148 11.2207 25.1211 12.1191C26.0273 13.0176 26.4805 14.1367 26.4805 15.4766ZM37.0098 20H35.9902L35.123 13.8301L32.1523 20.252L29.1875 13.8301L28.3203 20H27.2891L28.7422 10.7012L32.1758 18.1016L35.5801 10.7012L37.0098 20ZM43.0508 20H38.4688V10.9531H43.0508V11.9023H39.4766V14.6504H43.0508V15.5938H39.4766V19.0508H43.0508V20Z" fill="#FBC47C" fill-opacity="0.7"/>
</svg>
