<svg width="57" height="24" viewBox="0 0 57 24" fill="none" xmlns="http://www.w3.org/2000/svg">
<rect x="0.5" y="0.5" width="56" height="23" rx="3.5" stroke="#FBC47C" stroke-opacity="0.7"/>
<path d="M16.9062 15.4766C16.9062 14.418 16.5488 13.5273 15.834 12.8047C15.1191 12.082 14.2324 11.7207 13.1738 11.7207C12.0527 11.7207 11.1504 12.0879 10.4668 12.8223C9.7832 13.5566 9.44141 14.4414 9.44141 15.4766C9.44141 16.5352 9.79688 17.4258 10.5078 18.1484C11.2188 18.8711 12.1074 19.2324 13.1738 19.2324C14.2285 19.2324 15.1133 18.8711 15.8281 18.1484C16.5469 17.4219 16.9062 16.5312 16.9062 15.4766ZM17.9141 15.4766C17.9141 16.8008 17.457 17.916 16.543 18.8223C15.6289 19.7285 14.5059 20.1816 13.1738 20.1816C11.8379 20.1816 10.7129 19.7285 9.79883 18.8223C8.88867 17.9121 8.43359 16.7969 8.43359 15.4766C8.43359 14.1367 8.88477 13.0176 9.78711 12.1191C10.6934 11.2207 11.8223 10.7715 13.1738 10.7715C14.5215 10.7715 15.6484 11.2207 16.5547 12.1191C17.4609 13.0176 17.9141 14.1367 17.9141 15.4766ZM23.4863 15.5938H20.293V20H19.2852V10.9531H23.4863V11.9023H20.293V14.6504H23.4863V15.5938ZM29.2285 15.5938H26.0352V20H25.0273V10.9531H29.2285V11.9023H26.0352V14.6504H29.2285V15.5938ZM31.7773 20H30.7695V10.9531H31.7773V20ZM40.8242 19.4141C40.4922 19.6289 40.0449 19.8105 39.4824 19.959C38.9199 20.1074 38.4082 20.1816 37.9473 20.1816C36.5605 20.1816 35.4121 19.7383 34.502 18.8516C33.5918 17.9609 33.1367 16.832 33.1367 15.4648C33.1367 14.1367 33.5996 13.0234 34.5254 12.125C35.4512 11.2227 36.5957 10.7715 37.959 10.7715C38.5254 10.7715 39.0586 10.8418 39.5586 10.9824C40.0586 11.1191 40.4805 11.3125 40.8242 11.5625V12.6934C40.4531 12.3926 40.0215 12.1562 39.5293 11.9844C39.041 11.8086 38.5586 11.7207 38.082 11.7207C36.9648 11.7207 36.0293 12.0781 35.2754 12.793C34.5215 13.5039 34.1445 14.3945 34.1445 15.4648C34.1445 16.543 34.5059 17.4414 35.2285 18.1602C35.9551 18.875 36.8535 19.2324 37.9238 19.2324C38.4512 19.2324 38.9746 19.1465 39.4941 18.9746C40.0176 18.7988 40.4609 18.5605 40.8242 18.2598V19.4141ZM46.8242 20H42.2422V10.9531H46.8242V11.9023H43.25V14.6504H46.8242V15.5938H43.25V19.0508H46.8242V20Z" fill="#FBC47C" fill-opacity="0.7"/>
</svg>
